<svg width="17" height="17" viewBox="0 0 17 17" fill="none" xmlns="http://www.w3.org/2000/svg">
<path d="M2.10522 4.91228H4.21049" stroke="#121212" stroke-width="1.5" stroke-linecap="round" stroke-linejoin="round"/>
<path d="M2.10522 11.9298H6.31575" stroke="#121212" stroke-width="1.5" stroke-linecap="round" stroke-linejoin="round"/>
<path d="M12.6316 11.9298H14.7369" stroke="#121212" stroke-width="1.5" stroke-linecap="round" stroke-linejoin="round"/>
<path d="M10.5264 4.91228H14.7369" stroke="#121212" stroke-width="1.5" stroke-linecap="round" stroke-linejoin="round"/>
<path d="M4.21057 4.91228C4.21057 4.25833 4.21057 3.93135 4.31741 3.67342C4.45986 3.32953 4.73308 3.0563 5.07698 2.91385C5.33491 2.80701 5.66188 2.80701 6.31583 2.80701C6.96979 2.80701 7.29675 2.80701 7.55471 2.91385C7.89857 3.0563 8.17183 3.32953 8.31429 3.67342C8.4211 3.93135 8.4211 4.25833 8.4211 4.91228C8.4211 5.56623 8.4211 5.8932 8.31429 6.15113C8.17183 6.49503 7.89857 6.76826 7.55471 6.91071C7.29675 7.01754 6.96979 7.01754 6.31583 7.01754C5.66188 7.01754 5.33491 7.01754 5.07698 6.91071C4.73308 6.76826 4.45986 6.49503 4.31741 6.15113C4.21057 5.8932 4.21057 5.56623 4.21057 4.91228Z" stroke="#121212" stroke-width="1.5"/>
<path d="M8.42102 11.9298C8.42102 11.2759 8.42102 10.9489 8.52783 10.6909C8.67028 10.3471 8.94355 10.0738 9.28741 9.93137C9.54537 9.82456 9.87232 9.82456 10.5263 9.82456C11.1802 9.82456 11.5072 9.82456 11.7652 9.93137C12.109 10.0738 12.3823 10.3471 12.5247 10.6909C12.6315 10.9489 12.6315 11.2759 12.6315 11.9298C12.6315 12.5838 12.6315 12.9107 12.5247 13.1687C12.3823 13.5126 12.109 13.7858 11.7652 13.9283C11.5072 14.0351 11.1802 14.0351 10.5263 14.0351C9.87232 14.0351 9.54537 14.0351 9.28741 13.9283C8.94355 13.7858 8.67028 13.5126 8.52783 13.1687C8.42102 12.9107 8.42102 12.5838 8.42102 11.9298Z" stroke="#121212" stroke-width="1.5"/>
</svg>
