<svg width="8" height="7" viewBox="0 0 8 7" fill="none" xmlns="http://www.w3.org/2000/svg">
<path d="M3.94118 6C4.47344 6 4.98385 5.94741 5.45688 5.851C6.04774 5.73056 6.34318 5.67032 6.61277 5.32371C6.88235 4.97709 6.88235 4.57921 6.88235 3.78338V3.21662C6.88235 2.4208 6.88235 2.0229 6.61277 1.67629C6.34318 1.32967 6.04774 1.26945 5.45688 1.14901C4.98385 1.05258 4.47344 1 3.94118 1C3.40891 1 2.8985 1.05258 2.42546 1.14901C1.83461 1.26945 1.53918 1.32967 1.26959 1.67629C1 2.0229 1 2.4208 1 3.21662V3.78338C1 4.57921 1 4.97709 1.26959 5.32371C1.53918 5.67032 1.83461 5.73056 2.42546 5.851C2.8985 5.94741 3.40891 6 3.94118 6Z" stroke="#8C8C8C" stroke-width="0.525"/>
<path d="M5.1065 3.59202C5.06285 3.7702 4.83062 3.89817 4.36615 4.15414C3.86094 4.43249 3.60835 4.5717 3.40376 4.51808C3.33447 4.4999 3.27065 4.46796 3.21705 4.42464C3.05882 4.29673 3.05882 4.03114 3.05882 3.49999C3.05882 2.96885 3.05882 2.70326 3.21705 2.57534C3.27065 2.53201 3.33447 2.50008 3.40376 2.48192C3.60835 2.42829 3.86094 2.56748 4.36615 2.84585C4.83062 3.10182 5.06285 3.22979 5.1065 3.40796C5.12135 3.46861 5.12135 3.53137 5.1065 3.59202Z" stroke="#8C8C8C" stroke-width="0.525" stroke-linejoin="round"/>
</svg>
