<svg width="6" height="7" viewBox="0 0 6 7" fill="none" xmlns="http://www.w3.org/2000/svg">
<path d="M3.65442 5.84175C3.54602 5.94325 3.4011 6 3.25027 6C3.09945 6 2.95455 5.94325 2.84613 5.84175C1.85326 4.9065 0.52269 3.86173 1.17157 2.34492C1.52241 1.52479 2.36458 1 3.25027 1C4.13597 1 4.97815 1.52479 5.329 2.34492C5.97705 3.85983 4.64975 4.90973 3.65442 5.84175Z" stroke="#8C8C8C" stroke-width="0.750077"/>
<path d="M4.125 3.25C4.125 3.73325 3.73325 4.125 3.25 4.125C2.76675 4.125 2.375 3.73325 2.375 3.25C2.375 2.76675 2.76675 2.375 3.25 2.375C3.73325 2.375 4.125 2.76675 4.125 3.25Z" stroke="#8C8C8C" stroke-width="0.750077"/>
</svg>
