<svg width="24" height="24" viewBox="0 0 24 24" fill="none" xmlns="http://www.w3.org/2000/svg">
<path d="M20.9998 5.5C20.9998 6.90446 20.9998 7.60669 20.6206 8.11114C20.4564 8.32952 20.2455 8.51702 19.9998 8.66294C19.4323 9 18.6423 9 17.0623 9L6.9373 9C5.3572 9 4.5672 9 3.9997 8.66294C3.754 8.51702 3.5431 8.32952 3.3789 8.11114C2.9998 7.60669 2.9998 6.90446 2.9998 5.5C2.9998 4.09554 2.9998 3.39331 3.3789 2.88886C3.5431 2.67048 3.754 2.48298 3.9997 2.33706C4.5672 2 5.3572 2 6.9373 2L17.0623 2C18.6423 2 19.4323 2 19.9998 2.33706C20.2455 2.48298 20.4564 2.67048 20.6206 2.88886C20.9998 3.39331 20.9998 4.09554 20.9998 5.5Z" stroke="#121212" stroke-width="1.5"/>
<path d="M21 16.5C21 17.9045 21 18.6067 20.6208 19.1111C20.4566 19.3295 20.2457 19.517 20 19.6629C19.4325 20 18.6425 20 17.0625 20L6.93754 20C5.35744 20 4.56744 20 3.99994 19.6629C3.75424 19.517 3.54334 19.3295 3.37914 19.1111C3.00004 18.6067 3.00004 17.9045 3.00004 16.5C3.00004 15.0955 3.00004 14.3933 3.37914 13.8889C3.54334 13.6705 3.75424 13.483 3.99994 13.3371C4.56744 13 5.35744 13 6.93754 13L17.0625 13C18.6425 13 19.4325 13 20 13.3371C20.2457 13.483 20.4566 13.6705 20.6208 13.8889C21 14.3933 21 15.0955 21 16.5Z" stroke="#121212" stroke-width="1.5"/>
</svg>
