<svg width="36" height="36" viewBox="0 0 36 36" fill="none" xmlns="http://www.w3.org/2000/svg">
<g id="rick-svgrepo-com 1">
<path id="Vector" d="M5.54625 15.7106C4.52174 14.5711 3.66901 13.2882 3.015 11.9025C1.94625 9.62437 1.935 8.35875 2.17125 8.26875C2.4075 8.17875 5.83875 8.33062 7.4025 8.34187C8.96625 8.35312 9.6525 8.34187 9.6525 8.25187C9.6525 8.16187 9.42187 5.66437 9.225 4.31437C9.02812 2.96437 8.83687 2.06437 8.94937 2.03062C10.5907 2.15079 12.2026 2.5305 13.725 3.15562C16.5375 4.185 17.1 5.18625 17.1 5.18625C18.6866 3.9692 20.4362 2.98082 22.2975 2.25C25.0256 1.29375 26.1 1.42875 26.1956 1.59187C26.2913 1.755 24.9131 7.99875 25.1494 8.06625C26.409 8.05174 27.659 7.84498 28.8563 7.45312C30.3919 6.9525 32.7938 5.76562 33.0469 5.76562C33.3 5.76562 33.5081 7.74562 32.4506 10.1812C31.3931 12.6169 31.14 12.9487 31.2356 12.9937C32.0151 12.7967 32.7785 12.541 33.5194 12.2287C34.3125 11.8969 34.7288 11.8462 34.8244 12.1275C35.0748 14.21 34.5611 16.3126 33.3787 18.045C31.5731 20.4412 30.78 20.565 30.7125 20.6606C30.645 20.7562 30.7125 21.2625 32.4506 21.6225C34.1888 21.9825 35.0662 21.9544 35.0438 22.3312C34.8524 23.1884 34.4896 23.9981 33.9773 24.7115C33.4649 25.4249 32.8136 26.0273 32.0625 26.4825C29.7619 27.855 29.6213 27.855 29.6719 28.0406C29.7225 28.2262 29.7506 31.9781 29.6719 32.265C29.5931 32.5519 28.8113 33.0469 27.5738 32.8275C26.4518 32.618 25.3637 32.2565 24.3394 31.7531C24.0944 31.5887 23.8664 31.4003 23.6588 31.1906C23.6588 31.1906 21.5887 32.2819 21.0994 32.4731C20.8076 32.5877 20.5038 32.6688 20.1938 32.715C20.1938 32.715 20.1938 34.3012 20.1319 34.4025C20.0671 34.4622 19.9882 34.5044 19.9025 34.5251C19.8169 34.5457 19.7274 34.5442 19.6425 34.5206C19.3501 34.473 19.0518 34.473 18.7594 34.5206C18.5746 34.5661 18.3816 34.5661 18.1969 34.5206C17.9012 34.4953 17.6038 34.4953 17.3081 34.5206C17.0494 34.5206 16.4194 34.5206 16.3744 34.3631C16.3294 34.2056 16.245 32.8444 16.245 32.8444C15.3587 32.7788 14.4926 32.548 13.6912 32.1637C13.1941 31.8956 12.7484 31.5413 12.375 31.1175C11.6287 31.8514 10.6811 32.3468 9.6525 32.5406C8.16187 32.715 7.36312 32.5406 7.4025 32.4169C7.44187 32.2931 8.58937 28.5806 8.30812 28.6031C8.02687 28.6256 3.15 28.8337 2.75062 28.8337C2.35125 28.8337 1.90687 28.3781 2.07 28.0237C2.23312 27.6694 4.32 24.2212 5.11312 23.4225C5.90625 22.6237 6.345 22.1287 6.345 22.1287C5.34743 21.7095 4.30009 21.4202 3.22875 21.2681C1.6875 21.0937 0.888748 20.5819 0.978748 20.3962C1.64239 19.277 2.46895 18.2627 3.43125 17.3869C4.545 16.47 5.54625 15.7106 5.54625 15.7106Z" fill="#1D1D1B"/>
<path id="Vector_2" d="M3.29625 9.19125C3.465 9.0225 10.89 9.225 10.9125 9.08438C10.935 8.94375 9.855 2.8125 10.0687 2.8125C11.8253 3.32711 13.5223 4.02665 15.1312 4.89938C16.6106 5.84438 16.6837 6.19313 17.0831 6.17063C17.4825 6.14813 19.3331 4.37625 21.825 3.42563C24.3169 2.475 25.155 2.41313 25.155 2.50875C25.155 2.60438 24.345 6.62063 24.1875 7.36875C24.03 8.11688 23.94 8.91 24.1031 8.955C25.6712 8.99994 27.2373 8.81035 28.7494 8.3925C30.96 7.76813 32.5406 6.89625 32.5688 7.05938C32.0407 8.81897 31.3574 10.5282 30.5269 12.1669C29.8575 13.1963 29.5875 14.085 29.7281 14.1581C29.8687 14.2313 30.6619 13.9838 32.175 13.5281C33.6881 13.0725 33.8625 12.9994 33.8625 13.0725C33.8911 14.5968 33.4598 16.0943 32.625 17.37C31.7211 18.5907 30.6707 19.6958 29.4975 20.6606C29.5767 20.9677 29.7172 21.2555 29.9105 21.5068C30.1039 21.7582 30.3461 21.9678 30.6225 22.1231C31.2806 22.4213 33.8288 22.7981 33.8063 22.9388C33.2047 24.359 32.156 25.544 30.8194 26.3138C28.845 27.3319 28.6088 27.4388 28.5694 27.6188C28.53 27.7988 28.6706 31.7025 28.5075 31.725C27.5552 31.6491 26.613 31.4776 25.695 31.2131C24.9019 30.9375 24.57 30.6844 24.57 30.6169C25.2043 29.8409 25.7391 28.9887 26.1619 28.08C26.3862 27.5396 26.5394 26.9724 26.6175 26.3925C26.6175 26.3925 29.1881 26.5163 29.43 24.705C29.6719 22.8938 28.3669 22.5619 27.9956 22.5C27.75 22.4443 27.4993 22.4141 27.2475 22.41C27.2475 22.41 27.9 16.6163 25.9369 13.41C23.9738 10.2038 21.8813 8.51063 17.6344 8.685C13.3875 8.85938 11.115 11.0981 10.0744 15.435C9.03375 19.7719 9.30937 22.2638 9.30937 22.2638C9.30937 22.2638 7.23375 22.3481 7.29562 24.9188C7.3575 27.4894 10.0687 26.9719 10.0687 26.9719C10.0531 27.75 10.2684 28.5154 10.6875 29.1713C11.3737 30.2175 11.6831 30.6113 11.6831 30.6113C11.6831 30.6113 8.93812 31.6575 8.91562 31.5C8.89312 31.3425 9.61875 28.9463 9.52312 28.6875C9.4275 28.4288 8.96062 27.9225 8.79187 27.9225C8.62312 27.9225 3.33 28.1531 3.27937 27.9225C3.22875 27.6919 4.455 25.8075 5.68125 24.2606C6.9075 22.7138 7.50937 22.1175 7.48687 21.9094C7.46437 21.7013 6.6375 20.7225 4.83187 20.4581C3.02625 20.1938 2.31187 20.2219 2.35687 20.1544C3.23696 19.0203 4.24698 17.9933 5.36625 17.0944C5.92238 16.7937 6.40615 16.3752 6.78375 15.8681C5.82594 14.7973 4.98669 13.6262 4.28062 12.375C3.285 10.5019 3.22875 9.26438 3.29625 9.19125Z" fill="#85BFE9"/>
<path id="Vector_3" d="M11.5481 6.75C11.3471 5.91147 11.1912 5.06275 11.0813 4.2075C11.792 4.40155 12.4831 4.66143 13.1456 4.98375C13.1456 5.07938 13.1456 5.47875 13.0781 5.47875C12.6792 5.36886 12.2733 5.28617 11.8631 5.23125C11.8631 5.29875 12.0544 6.35625 12.0319 6.39563C12.0094 6.435 11.5931 6.81188 11.5481 6.75Z" fill="#1D1D1B"/>
<path id="Vector_4" d="M20.25 5.34375C20.8086 4.86752 21.4246 4.46312 22.0837 4.14C22.7587 3.89812 22.6462 3.78562 22.7587 3.89812C22.8712 4.01062 23.0231 4.3875 22.95 4.46062C22.3681 4.65908 21.8036 4.90555 21.2625 5.1975C20.7281 5.55187 20.7 5.76 20.5706 5.715C20.4412 5.67 20.3175 5.43937 20.25 5.34375Z" fill="#1D1D1B"/>
<path id="Vector_5" d="M9.27 23.2988C9.48561 24.1939 9.61743 25.1073 9.66375 26.0269C9.59625 26.0269 8.33625 25.875 8.325 24.9638C8.33958 24.6313 8.43285 24.307 8.59712 24.0175C8.7614 23.7281 8.99201 23.4817 9.27 23.2988Z" fill="#E6E4DA"/>
<path id="Vector_6" d="M27.2756 23.3213C27.3487 23.2425 28.6087 23.3213 28.4006 24.4069C28.1925 25.4925 26.8312 25.875 26.8031 25.7288C26.9029 25.286 27.025 24.8486 27.1687 24.4181C27.3262 23.76 27.135 23.4619 27.2756 23.3213Z" fill="#E6E4DA"/>
<path id="Vector_7" d="M17.55 9.68625C19.8 9.68625 22.5225 9.81 24.6544 13.5281C26.7863 17.2462 26.55 20.1937 25.9706 23.5181C25.3913 26.8425 24.4688 28.8281 23.895 29.4637C23.6749 29.7263 23.4341 29.9708 23.175 30.195C22.7431 29.8521 22.2798 29.5508 21.7913 29.295C21.6731 29.34 21.51 29.5087 21.5606 29.5987C21.6113 29.6887 22.6856 30.4537 22.6406 30.5269C22.5956 30.6 21.9881 31.0219 21.9206 30.9487C21.4783 30.568 21.0144 30.213 20.5313 29.8856C20.4413 29.8856 20.16 30.0994 20.2106 30.195C20.2613 30.2906 21.5438 31.1175 21.4088 31.2131C21.2738 31.3087 20.5256 31.6406 20.43 31.5675C20.3344 31.4944 19.3444 30.4819 19.2544 30.4819C19.1644 30.4819 18.9056 30.6225 18.9731 30.7406C19.0406 30.8587 19.7775 31.7362 19.7775 31.7362C18.2554 31.9195 16.7158 31.9006 15.1988 31.68C13.1175 31.2975 11.6494 29.0025 10.98 26.5556C10.3106 24.1087 10.3106 18.9 11.0362 16.02C11.7619 13.14 13.0387 9.72 17.55 9.68625Z" fill="#E6E4DA"/>
<path id="Vector_8" d="M17.0044 32.8331C17.0719 32.7656 17.7075 32.8781 18.3375 32.8331C18.9675 32.7881 19.2713 32.7994 19.2713 32.8669C19.2713 32.9344 19.35 33.8962 19.2713 33.9187C18.9924 34.0058 18.6954 34.0175 18.4106 33.9525C18.1509 33.8171 17.8592 33.7548 17.5669 33.7725C17.3363 33.8175 17.1956 33.9862 17.1225 33.8906C17.031 33.5459 16.9912 33.1895 17.0044 32.8331Z" fill="#E6E4DA"/>
<path id="Vector_9" d="M12.9037 13.1119C13.0894 13.0444 14.5912 12.1387 18.1969 12.1556C21.8025 12.1725 23.8556 13.14 23.9062 13.4212C23.9569 13.7025 23.9062 14.7994 23.7094 14.7994C23.5125 14.7994 22.3931 14.0175 18.2587 14.0625C14.1244 14.1075 12.9375 15.0919 12.7069 14.9344C12.4762 14.7769 12.2287 13.3481 12.9037 13.1119Z" fill="#1D1D1B"/>
<path id="Vector_10" d="M13.14 13.5C13.2806 13.2075 14.9794 12.5494 18.3881 12.7069C21.7969 12.8644 23.3944 13.4381 23.3944 13.6294C23.3944 13.8206 23.5125 14.1187 23.3944 14.1187C21.7178 13.6352 19.974 13.4262 18.2306 13.5C16.5473 13.5652 14.8753 13.8046 13.2413 14.2144C13.05 14.1581 13.095 13.5731 13.14 13.5Z" fill="#85BFE9"/>
<path id="Vector_11" d="M19.7663 15.75C21.3356 15.1088 24.2663 15.5756 24.1594 18.7763C24.0525 21.9769 20.1488 22.4269 18.8269 20.6381C17.505 18.8494 18.135 16.4081 19.7663 15.75Z" fill="#1D1D1B"/>
<path id="Vector_12" d="M20.0137 16.2506C21.2962 15.7219 23.6925 16.1044 23.6194 18.7312C23.5462 21.3581 20.3231 21.7294 19.2375 20.25C18.1519 18.7706 18.675 16.7962 20.0137 16.2506Z" fill="white"/>
<path id="Vector_13" d="M13.3537 15.6656C14.7994 15.075 17.4881 15.5025 17.4038 18.45C17.3194 21.3975 13.7081 21.825 12.4875 20.1712C11.2669 18.5175 11.8519 16.2787 13.3537 15.6656Z" fill="#1D1D1B"/>
<path id="Vector_14" d="M13.5844 16.1325C14.7656 15.6488 16.9594 15.9975 16.9031 18.4219C16.8469 20.8463 13.8713 21.1837 12.87 19.8337C11.8688 18.4837 12.375 16.6388 13.5844 16.1325Z" fill="white"/>
<g id="Group">
<path id="Vector_15" d="M14.3494 17.9156C14.4497 17.868 14.5612 17.849 14.6717 17.8608C14.7821 17.8727 14.8871 17.9148 14.9751 17.9826C15.063 18.0504 15.1305 18.1412 15.17 18.245C15.2096 18.3488 15.2196 18.4615 15.1991 18.5706C15.1785 18.6798 15.1282 18.7811 15.0536 18.8634C14.9791 18.9457 14.8832 19.0058 14.7766 19.037C14.67 19.0681 14.5569 19.0692 14.4497 19.0401C14.3425 19.011 14.2455 18.9527 14.1694 18.8719C14.1097 18.8005 14.0666 18.7168 14.0431 18.6268C14.0196 18.5368 14.0164 18.4427 14.0336 18.3512C14.0508 18.2598 14.088 18.1733 14.1426 18.098C14.1972 18.0227 14.2678 17.9604 14.3494 17.9156Z" fill="#1D1D1B"/>
<path id="Vector_16" d="M20.9644 18.1631C21.065 18.1162 21.1766 18.0981 21.2868 18.1106C21.3971 18.1232 21.5017 18.166 21.5892 18.2343C21.6767 18.3026 21.7435 18.3938 21.7824 18.4978C21.8213 18.6017 21.8307 18.7144 21.8095 18.8233C21.7884 18.9323 21.7375 19.0333 21.6626 19.1151C21.5876 19.197 21.4915 19.2565 21.3848 19.2871C21.2782 19.3178 21.1651 19.3183 21.0581 19.2887C20.9512 19.2591 20.8545 19.2005 20.7787 19.1194C20.7193 19.0476 20.6765 18.9636 20.6534 18.8733C20.6304 18.7831 20.6276 18.6888 20.6454 18.5973C20.6631 18.5059 20.701 18.4195 20.7561 18.3444C20.8113 18.2693 20.8824 18.2074 20.9644 18.1631Z" fill="#1D1D1B"/>
<path id="Vector_17" d="M12.33 21.2288C12.8035 21.6399 13.3933 21.8935 14.0175 21.9544C14.6007 21.9967 15.1869 21.9378 15.75 21.78C15.8625 21.8081 15.8681 22.1456 15.8625 22.2356C15.1942 22.5144 14.4588 22.5907 13.7475 22.455C13.1103 22.3813 12.5161 22.0961 12.06 21.645C12.0094 21.5494 12.2625 21.2288 12.33 21.2288Z" fill="#1D1D1B"/>
<path id="Vector_18" d="M20.655 22.2638C21.2534 22.4539 21.896 22.4539 22.4944 22.2638C23.0444 22.0815 23.5571 21.8014 24.0075 21.4369C24.1256 21.4369 24.2606 21.7294 24.2888 21.8137C23.7808 22.3317 23.1311 22.6878 22.4213 22.8375C21.8112 23.0051 21.1629 22.9675 20.5763 22.7306C20.4806 22.6856 20.5875 22.2863 20.655 22.2638Z" fill="#1D1D1B"/>
<path id="Vector_19" d="M16.7512 22.3819C16.7512 22.3088 17.1619 22.2131 17.19 22.3256C17.2181 22.4381 17.1169 25.9144 18.0731 25.8919C19.0294 25.8694 18.7144 22.3144 18.8044 22.2638C18.9512 22.2362 19.1019 22.2362 19.2487 22.2638C19.2487 22.2638 19.8112 26.5331 18.1237 26.5106C16.4362 26.4881 16.7569 22.4269 16.7512 22.3819Z" fill="#1D1D1B"/>
<path id="Vector_20" d="M12.4594 27.7313C12.4413 27.4014 12.4774 27.0707 12.5662 26.7525C12.7069 26.4431 13.1287 26.0944 13.2187 26.1169C13.3087 26.1394 13.5 26.37 13.4269 26.4656C13.3537 26.5613 12.9431 26.7919 12.9206 27.0731C12.8981 27.3544 12.9206 27.8438 12.8587 27.8719C12.7138 27.8699 12.5736 27.8205 12.4594 27.7313Z" fill="#1D1D1B"/>
<path id="Vector_21" d="M21.9769 26.1619C21.9769 26.1619 22.275 25.8075 22.3706 25.8075C22.5604 25.8833 22.733 25.9965 22.8779 26.1405C23.0229 26.2846 23.1373 26.4563 23.2144 26.6456C23.4281 27.2081 23.4337 27.7369 23.2706 27.7706C23.1075 27.8044 22.8262 27.8438 22.8262 27.7706C22.8262 27.6975 23.0569 27.0731 22.8262 26.6963C22.5963 26.4451 22.3029 26.2605 21.9769 26.1619Z" fill="#1D1D1B"/>
<path id="Vector_22" d="M13.7137 27.3263C13.8319 27.36 14.9625 28.1306 17.6006 28.0406C19.0953 27.9597 20.5707 27.6661 21.9825 27.1688C22.0491 27.3152 22.0818 27.4748 22.0781 27.6356C22.0781 27.7256 20.1937 28.6763 17.5106 28.6256C14.8275 28.575 13.6069 27.9338 13.5731 27.8381C13.5394 27.7425 13.6462 27.3038 13.7137 27.3263Z" fill="#1D1D1B"/>
</g>
</g>
</svg>
